<?xml version="1.0" encoding="UTF-8"?>
<svg xmlns="http://www.w3.org/2000/svg" viewBox="0 0 106 118" width="106" height="118">
<path d="M52.91 21.14C62.98 19.55 65.75 36.1 65.52 43.15C65.41 46.17 64.41 48.93 66.17 51.67C67.94 54.44 74.09 52.45 76.83 52.91C82.23 53.82 84.55 61.97 84.3 66.5C84.06 70.84 79.1 74.88 75.48 76.67C73.85 77.48 70.9 76.64 70.16 78.98C69.69 80.5 71.17 83.01 71.62 84.53C73.04 89.3 74.59 100.42 67.5 101.81C65.04 102.29 62.89 100.45 61.02 99.15C53.62 93.99 53.21 82.3 47.47 78.67C45.62 77.49 42.21 79.33 40.31 79.82C35.12 81.17 27.33 83.1 23.21 78.64C19.93 75.09 20.78 67.34 23.44 63.59C24.94 61.47 28.19 58.86 28.35 56.17C28.5 53.38 25.94 52.58 24.42 50.75C22.11 47.95 19.08 43.13 19.82 39.31C20.71 34.8 30.27 33.97 33.6 35.22C35.68 36 36.47 38.57 39.09 37.59C42.35 36.36 41.22 33.02 42.26 30.47C44.12 25.92 47.82 21.94 52.91 21.14ZM59.5 53.92C57.82 54.12 57.01 53.32 55.47 53.12C52.38 52.71 47.17 53.67 45.27 56.43C41.41 62.07 47.41 76.39 54.23 77.25C62.7 78.31 68.2 69.67 65.82 62.02C64.81 58.76 61.83 56.25 59.5 53.92Z" fill="#fe3301" fill-rule="evenodd" stroke="#fe3301" stroke-width="0.25" stroke-linejoin="round"/>
<path d="M47.01 91.7C46.18 89.75 45.34 87.79 44.51 85.83C43.56 85.9 42.61 85.96 41.67 86.03C37.28 86.37 31.41 88.38 27 87.5C16.51 85.41 12.39 73.4 16.04 63.85C17.07 61.14 19.78 59.03 21.18 56.5C15.87 47.66 6.96 36.65 21.17 30.3C23.68 29.17 27.17 28.72 29.84 28.43C31.42 28.25 33.37 28.97 34.86 28.26C37.01 27.24 37.12 24.22 38.32 22.53C40.42 19.57 44.19 16.66 47.53 15.36C61.24 10.01 70.29 22.19 72.88 34.24C73.65 37.82 73.19 42.48 73.33 46.17C75.42 45.82 78.77 46.83 80.59 47.9C87.79 52.15 91.37 58.49 90.87 67.16C90.31 77 80.42 77.37 77.98 82.16C77.37 83.36 78.94 89.27 79.01 91.17C79.41 101.43 75.92 105.76 66.5 108.89C65.39 107.86 64.57 108.43 63.34 107.86C60.84 106.7 57.16 104.62 55.13 102.7C54.03 101.65 52.3 98.89 50.83 99.1C49.56 96.63 48.29 94.17 47.01 91.7ZM52.91 21.14C47.82 21.94 44.12 25.92 42.26 30.47C41.22 33.02 42.35 36.36 39.09 37.59C36.47 38.57 35.68 36 33.6 35.22C30.27 33.97 20.71 34.8 19.82 39.31C19.08 43.13 22.11 47.95 24.42 50.75C25.94 52.58 28.5 53.38 28.35 56.17C28.19 58.86 24.94 61.47 23.44 63.59C20.78 67.34 19.93 75.09 23.21 78.64C27.33 83.1 35.12 81.17 40.31 79.82C42.21 79.33 45.62 77.49 47.47 78.67C53.21 82.3 53.62 93.99 61.02 99.15C62.89 100.45 65.04 102.29 67.5 101.81C74.59 100.42 73.04 89.3 71.62 84.53C71.17 83.01 69.69 80.5 70.16 78.98C70.9 76.64 73.85 77.48 75.48 76.67C79.1 74.88 84.06 70.84 84.3 66.5C84.55 61.97 82.23 53.82 76.83 52.91C74.09 52.45 67.94 54.44 66.17 51.67C64.41 48.93 65.41 46.17 65.52 43.15C65.75 36.1 62.98 19.55 52.91 21.14Z" fill="#510101" fill-rule="evenodd" stroke="#510101" stroke-width="0.25" stroke-linejoin="round"/>
<path d="M59.5 53.92C61.83 56.25 64.81 58.76 65.82 62.02C68.2 69.67 62.7 78.31 54.23 77.25C47.41 76.39 41.41 62.07 45.27 56.43C47.17 53.67 52.38 52.71 55.47 53.12C57.01 53.32 57.82 54.12 59.5 53.92ZM47.01 91.7C46.29 90.97 45.57 90.23 44.85 89.5C44.62 88.67 44.39 87.83 44.17 87C44.17 87.68 44.17 88.35 44.17 89.03C42.77 88.18 41.37 87.34 39.98 86.5C40.54 86.34 41.1 86.19 41.67 86.03C42.61 85.96 43.56 85.9 44.51 85.83C45.34 87.79 46.18 89.75 47.01 91.7Z" fill="#d8cbb6" fill-rule="evenodd" stroke="#d8cbb6" stroke-width="0.25" stroke-linejoin="round"/>
</svg>